<?xml version="1.0" encoding="UTF-8"?>
<svg xmlns="http://www.w3.org/2000/svg" version="1.1" viewBox="0 0 500 500">
  <defs>
    <style>
      .cls-1, .cls-2 {
        fill: none;
      }

      .cls-2 {
        stroke: #000;
        stroke-miterlimit: 10;
        stroke-width: 10px;
      }
    </style>
  </defs>
  <!-- Generator: Adobe Illustrator 28.6.0, SVG Export Plug-In . SVG Version: 1.2.0 Build 709)  -->
  <g>
    <g id="_Ñëîé_1" data-name="Ñëîé_1">
      <path class="cls-1" d="M0,499.99h499.82S500-.01,500-.01H.18S0,499.99,0,499.99Z"/>
      <path d="M145.34,309.74c.23.81.56,1.51.97,2.13.95,1.6,2.41,2.84,4.26,3.11,25.11,3.65,49.74,10.25,73.2,19.93,31.03,12.81,60.07,31.11,85.12,53.45,7.6,6.78,14.88,13.93,21.66,21.52,1.91,2.14,3.79,4.32,5.6,6.55.56.69,2.57,3.43.49.57.14.2.3.39.44.58,2.4,3.24,6.47,4.96,10.26,2.69,3.21-1.92,5.12-6.98,2.69-10.26-3.23-4.36-6.8-8.49-10.45-12.49-4.3-4.72-8.77-9.29-13.38-13.71,18.24-21.03,28.68-48.04,28.68-76.07,0-28.05-10.46-55.07-28.71-76.11,8.62-8.08,16.87-16.71,23.86-26.17,2.4-3.25.54-8.42-2.69-10.26-3.62-2.06-7.47-.72-9.92,2.26.07-.1.12-.16.12-.16-.6.71-1.16,1.46-1.75,2.19-2.25,2.75-4.6,5.43-7,8.05-46.23,50.57-110.68,83.12-178.23,92.95-1.79.26-3.23,1.44-4.18,2.97-.45.65-.81,1.4-1.06,2.27-.16.57-.23,1.18-.23,1.8-.04.76.03,1.5.23,2.19ZM328.89,285.06c0-10.31,3.3-18.67,7.37-18.67s7.37,8.36,7.37,18.67-3.3,18.67-7.37,18.67-7.37-8.36-7.37-18.67ZM189.82,307.77c13.57-3.59,26.89-8.09,39.88-13.53,31.01-12.97,59.83-30.71,85.33-52.59,2.88,3.32,5.54,6.81,7.95,10.45-11.28,2.48-20.13,26.44-20.13,55.65,0,29.21,8.85,53.17,20.13,55.65-2.38,3.59-5.02,7.02-7.86,10.31-35.92-31.11-79.38-53.72-125.3-65.93Z"/>
      <g>
        <line class="cls-2" x1="158.53" y1="139.67" x2="311.08" y2="139.67"/>
        <path d="M371.43,139.67c-28.4,10.54-63.63,28.52-85.47,47.56l17.2-47.56-17.2-47.55c21.84,19.04,57.08,37.02,85.47,47.55Z"/>
      </g>
    </g>
  </g>
</svg>